<?xml version="1.0" encoding="utf-8"?>
<!-- Generator: Adobe Illustrator 26.4.1, SVG Export Plug-In . SVG Version: 6.00 Build 0)  -->
<svg version="1.1" id="Layer_1" xmlns="http://www.w3.org/2000/svg" xmlns:xlink="http://www.w3.org/1999/xlink" x="0px" y="0px"
	 viewBox="0 0 95 95" style="enable-background:new 0 0 95 95;" xml:space="preserve">
<style type="text/css">
	
		.st0{opacity:0.4;clip-path:url(#SVGID_00000067956246178318465640000009272281118133976746_);fill-rule:evenodd;clip-rule:evenodd;enable-background:new    ;}
	
		.st1{fill-rule:evenodd;clip-rule:evenodd;fill:#88CE02;stroke:#000000;stroke-width:1.3433;stroke-linejoin:round;stroke-miterlimit:1.0746;}
	
		.st2{opacity:0.4;clip-path:url(#SVGID_00000118397724688007951300000012264165008841527214_);fill-rule:evenodd;clip-rule:evenodd;enable-background:new    ;}
	.st3{fill-rule:evenodd;clip-rule:evenodd;}
	.st4{fill-rule:evenodd;clip-rule:evenodd;fill:#EFEFEF;}
	.st5{fill-rule:evenodd;clip-rule:evenodd;fill:#88CE02;}
	.st6{fill-rule:evenodd;clip-rule:evenodd;fill:#001423;}
	.st7{opacity:0.3;fill-rule:evenodd;clip-rule:evenodd;enable-background:new    ;}
	.st8{opacity:0.4;fill-rule:evenodd;clip-rule:evenodd;enable-background:new    ;}
	
		.st9{fill-rule:evenodd;clip-rule:evenodd;fill:#88CE02;stroke:#000000;stroke-width:0.6985;stroke-linejoin:round;stroke-miterlimit:2.6866;}
</style>
<g id="capeFlow1">
	<g>
		<g>
			<defs>
				<path id="SVGID_1_" d="M46.9,26.4c-3.1,1-5,1.8-11.3,4.7c-3.5,1.6-13.2,5.5-15.5,9.8c7.8-4.5,9.6,1.2,10.2,7.7
					c0.6,6,3.6,9.1,11.3,9c7.9-0.2,10.3,4.4,12.5,9.8c4.2-20.7,3.8-24,4.8-26.8C58.2,32.5,51.2,24.9,46.9,26.4z"/>
			</defs>
			<clipPath id="SVGID_00000113319425121355006720000000060111756723688357_">
				<use xlink:href="#SVGID_1_"  style="overflow:visible;"/>
			</clipPath>
			
				<path id="shadowTop1" style="opacity:0.4;clip-path:url(#SVGID_00000113319425121355006720000000060111756723688357_);fill-rule:evenodd;clip-rule:evenodd;enable-background:new    ;" d="
				M43.5,31.1c-4,1.6-14.8,6-17.7,7.6c-0.5,0.2-7.1,3.8-7.1,3.8c0.6,1.8,7.7,12.5,8.2,12.4c0.5,0,2.8-2.7,3.6-4.5
				c2.6-7.2,12.1-14.8,12.4-15.4c0.2-0.3-0.2-1.4,0.4-2.5C44.2,31.1,45.8,30.2,43.5,31.1z"/>
		</g>
	</g>
	<path id="capeTop1" class="st1" d="M63,19.7c-11.8,4.1-23.5,5.1-37.2,13.6c-3.3,2-10.1,6.6-11.5,15.3c5-5.6,16.6-12.5,30.8-17
		c7.1-2.2,12.4-3.7,18.8-6.2C63.4,22.6,63.4,21.5,63,19.7z"/>
	<g>
		<g>
			<defs>
				<path id="SVGID_00000157293153463925789360000004684009060320812463_" d="M46.9,26.4c-3.1,1-5,1.8-11.3,4.7
					c-3.5,1.6-13.2,5.5-15.5,9.8c7.8-4.5,9.6,1.2,10.2,7.7c0.6,6,3.6,9.1,11.3,9c7.9-0.2,10.3,4.4,12.5,9.8
					c4.2-20.7,3.8-24,4.8-26.8C58.2,32.5,51.2,24.9,46.9,26.4z"/>
			</defs>
			<clipPath id="SVGID_00000037660490711866763940000007400693411132996230_">
				<use xlink:href="#SVGID_00000157293153463925789360000004684009060320812463_"  style="overflow:visible;"/>
			</clipPath>
			
				<path id="shadowBottom1" style="opacity:0.4;clip-path:url(#SVGID_00000037660490711866763940000007400693411132996230_);fill-rule:evenodd;clip-rule:evenodd;enable-background:new    ;" d="
				M52.8,66.4c3.3-4.2,2.3-9.4,2.3-14c0-1.9,1.4-4.7,0.7-3.9c-2.7,3-9.5,8.6-14.3,8.9c-11,0.8-11.8,3.6-11.2,5
				C31.7,65.5,52.2,69.5,52.8,66.4z"/>
		</g>
	</g>
</g>
<g id="GUY">
	<path class="st3" d="M56.5,83.6c0.4,2.4,0.1,2.6-2.4,2.9s-4.4-0.6-5-1.2c-0.7-0.6-0.8-2-0.1-3.3c0.4-0.8,0.8-1.1,1-2.1
		s0.4-1.2,0.6-1.5c0.2-0.3,0.2-0.6,0.3-2.8c0.1-2.2,0-6.3,0.2-8c0.2-1.8,7.9,0.8,7.9,0.8s-1.8,4.6-2.3,5.7s-0.4,3.3-0.4,3.7
		s-0.2,1.3-0.3,1.4s0.5,1.2,0.2,1.9S56.5,83.3,56.5,83.6z"/>
	<path class="st3" d="M59.5,15.2c-0.3-1.7,0-5.1,0.4-5.6c1.1-1.5,7-1.7,8.3,0.1c0.5,0.8,0.5,2.7,0.4,3.9s-0.4,3.8-0.5,4.6
		c-0.1,0.6-6.5,1.6-8-0.1C59.7,17.7,59.5,15.2,59.5,15.2z"/>
	<path class="st3" d="M72.6,79.3c2.7,1.9,4.8,2.3,6.2,3.1c1.4,0.7,1,2.1-1.3,2.5c-1.9,0.3-4.8-0.4-6.8-0.4c-1.9,0-6.4,0.2-7.5-0.6
		c-1.3-0.9-0.8-2.7-0.8-2.7c0.4-1,1.3-3.2,1-5s-0.6-2.8-1.3-4.4s-1.2-5.7-0.5-6c0.6-0.2,0.5,0,1.2,0.2c0.8,0.2,1.7,0.4,3.5,0.4
		c1.8,0,3.7-0.3,4.4-0.4c0.7-0.1,1.2-0.2,1,1.1c-0.2,1.4-0.9,4-0.9,6s0,4.3,0.1,4.8C71,78.4,71.9,78.8,72.6,79.3z"/>
	<path class="st3" d="M78.1,44.2c0,0-0.9,2.9-2.5,3.8c0,0-1.3,0.5-3.8-1c-0.7-0.4-1.2-1.8-1.2-2.2c0-1.1,0.7-1.6,0.7-1.6
		s0.7-1.2,1.6-1.1c0.9,0,2.3,0.2,2.7-0.2C76,41.5,78.2,42.8,78.1,44.2z"/>
	<path class="st3" d="M59.9,16.1c0,0-0.2,2.3-0.5,3.7c-0.1,0.3-1.4,0.4-2.4,0.8c1.9,5.4,13.2,5.3,14.7,2.7c-0.7-0.5-2.1-1.2-2.8-1.5
		c-0.7-0.3-0.6-0.2-0.7-1.5c0-1.3-0.1-3.6-0.2-4.2C67.9,15.5,61,15.5,59.9,16.1z"/>
	<path class="st4" d="M60.3,16.1c0,0,0,1.3-0.1,2.6c0,0.6-0.1,0.9-0.2,1.4c-0.1,0.3,1.5,1.3,2,3.7c2.2,4.8,7.1,2.4,9.2,0.1
		c-0.7-0.5-1.9-1.2-3.2-1.7c-0.7-0.3-0.4-0.8-0.4-2.1c0-1.3-0.2-3.1-0.3-3.8C67.1,15.6,61.4,15.5,60.3,16.1z"/>
	<path class="st3" d="M59.9,16.1c0,0-0.1,0.8-0.2,1.8c0.6,0.6,1.3,1.4,1.9,1.9c0.4,0.3,1.4,0.3,2.3,0.3c0.8,0,1.5,0.1,1.9-0.1
		c0.7-0.4,1.8-1.3,2.3-1.9c0-0.8-0.1-1.6-0.1-1.9C67.9,15.5,61,15.5,59.9,16.1z"/>
	<path class="st3" d="M63.9,19.5c-0.5,0-1.2,0-1.7-0.1c-0.2-0.1-0.4-0.2-0.6-0.3c-0.3-0.2-0.6-0.5-1-0.8c-0.7-0.5-0.8-0.8-0.7-1
		c0.3-2.8-0.1-5.2-0.1-5.2s-0.3-1.2,1.4-1.6c1.7-0.3,2.7-0.3,2.7-0.3s1.1,0,2.7,0.3C68.3,10.8,68,12,68,12s-0.4,2.4-0.1,5.2
		c0,0.2,0,0.5-0.7,1c-0.6,0.5-1.1,0.9-1.6,1C65.1,19.4,64.5,19.5,63.9,19.5z"/>
	<path class="st3" d="M63.9,9.1c-3,0-3.6,0.8-4.4,1.7c-0.2,0.2,0,1.6,0.3,4.4h0.4c0,0-0.3-0.8-0.2-1.8c0-0.9,0.2-0.9,0.1-1.1
		c-0.2-0.3-0.5-0.7,0.3-1.2c0.8-0.4,2.1,0.4,3.6,0.4c1.5,0,2.8-0.8,3.6-0.4c0.8,0.4,0.4,0.9,0.3,1.2c-0.2,0.3,0,0.2,0.1,1.1
		c0,0.9-0.2,1.8-0.2,1.8h0.4c0.3-2.9,0.4-4.1,0.3-4.3C67.6,9.9,66.9,9.1,63.9,9.1z"/>
	<path class="st3" d="M78.1,44.4c0,0-0.8,2.7-2.5,3.7c-0.4-0.2-0.3-0.5-0.6-0.9c-0.1-0.1-0.4-0.2-0.5-0.4c-0.1-0.1-0.1-0.4-0.3-0.5
		c-0.2-0.2-0.3-0.1-0.5-0.2c-0.2-0.2-0.2-0.4-0.4-0.6c-0.1-0.1-0.4-0.1-0.5-0.2c-0.2-0.2-2.2-0.6-2.1-1.1c0.2-0.7,0.5-1.2,0.5-1.2
		s0.8-1.3,1.7-1.2c0.9,0,1.6,0.2,2.1-0.2C75.5,41.3,78.2,42.9,78.1,44.4z"/>
	<path class="st3" d="M72.3,24.6c0,0,2.8-0.7,4.8,1.2c1.9,1.9,1.8,4.2,1.2,5.7c0.5,0.6,1.4,2.2,0.7,4.1c3,2.5,1.6,6.4-1,8.9
		c0,0-0.6-2.3-3.1-2.5c0.1-0.9-2.3-1.6-1.2-3.9c-1.7-0.4-1.7-1.6-1.9-3C71.5,33.6,72.3,24.6,72.3,24.6z"/>
	<path class="st4" d="M71.3,25.8c0,0,3.3-1.6,5.2,0.2c1.9,1.9,1.4,3.9,0.8,5.4c0.5,0.6,1.6,2.2,0.9,4.2C78,36,77.1,36,76.4,37.2
		c1.8-1,2.9-0.8,3.3,0.6c0.6,2-0.8,4.4-2,5.8c0,0,0-0.1-0.1-0.1c-0.2,0.7-0.4,2-1.7,3.4c-0.7,0.7-1.2,0.6-2,0.5
		c-0.9-0.2-1.2-0.6-2.5-1.3c-0.7-0.4-0.3-0.9-0.3-1.3c0-0.1,0.1-0.2,0.2-0.4s0.3-0.6,0.8-1c0,0,0.6-0.8,1.4-0.8s1.7-0.1,2-0.4l0,0
		c0-1.6-1.8-1.6-1.2-4.3c0-0.1,0.3-0.4,1-0.4c-1.1-0.2-1.6-0.3-2.3-1c-0.5-0.5-0.9-1.1-1.1-1.9C71.7,33.1,71.3,25.8,71.3,25.8z"/>
	<path class="st3" d="M61.8,23c-0.3-0.4-1.6-2.1-4.3-2.9c-0.8-0.2-1.2,0.4-2,0.8c-0.2-0.1-1.2-0.6-1.7-0.3c-0.5,0.3-0.9,0.6-1.4,0.8
		c-0.3-0.1-0.7-0.3-1.3-0.1c-0.6,0.2-1.8,0.7-2.6,1.9C48,25.1,58,23.7,58,23.7L61.8,23z"/>
	<path class="st5" d="M61.9,23c-1.4-0.5-1.2-2.2-4.4-2.4c-0.6-0.1-1,0.5-1.5,0.8c0.2,0.2,0.5,0.6,0.6,1c-0.4-0.5-1.1-1-1.8-1.2
		c-0.7-0.1-1.1,0.4-1.8,0.7c0.1,0.2,0.3,0.3,0.4,0.6c-0.6-0.4-1.1-0.5-1.9-0.2c-0.6,0.2-1.7,0.7-2.5,1.9c-0.5,1.9,9-0.2,9-0.2
		L61.9,23z"/>
	<path class="st3" d="M70.3,23.7c0,0,0-0.5,0-0.9c0-0.1-0.3-0.3-0.4-0.4l-0.1-0.1c0,0,0.7-0.4,1.3-0.2C71.7,22.3,72,23,72,23
		c1-0.3,1.1,0,1.6,0.6c1.1-0.2,1.2,0.2,1.9,1.2c0,0-0.8-0.1-2.4,0.1C71.6,25.1,70.3,23.7,70.3,23.7z"/>
	<path class="st5" d="M70.2,23.5c0,0,0.3-0.2,0.2-0.3c0.5-0.3,1.1-0.6,1.5,0.3c1-0.3,1.2,0.1,1.6,0.7c1.2-0.6,1.3,0.1,1.4,0.5
		c-0.4,0-1,0-1.8,0.1C71.6,25,70.1,23.4,70.2,23.5z"/>
	<path class="st3" d="M54.9,22.4c0,0,2.5,0.9,4.7,0.8s5.8-0.3,7.8,0.8c0,0,2-0.7,3.9-0.2s5.3,3.7,4.3,7.1c-0.1,0.2-0.7,0.6-1.3,0.8
		c0,0,0.4,1.5-0.3,2.8c-0.6,1.2-2,3.5-2.1,6.7l0,0c-0.1,0.5-0.1,1.7-0.2,2.2c-3.5-0.1-8.9-1.4-14.1-1.3c0-0.6,0.1-0.9,0.2-1.5h0.1
		c-0.3-1.5-0.4-2.2-0.6-3.3c-1.7-1.1-3.5-2.3-5-4.7C50.7,30.1,54.9,22.4,54.9,22.4z"/>
	<path class="st3" d="M72.2,46.5c0,0,2.8,9.9-0.5,14.1c0,0,0.5,1.9-0.6,4c-0.2,0.9-0.4,1.7-0.6,2.6c-0.6,3.7-1.6,5.3-1.8,11.2
		L66,78.3c0,0-0.3-4.3-1.2-6.6c-0.5-1.3-2.7-3-2.5-4.8c0.1-1.4,0.4-2.5,2.6-4.2c0.2-2.6-2.4-5.1-2-14.7L72.2,46.5z"/>
	<path class="st4" d="M71.4,46.1c0.7,4.6,2.4,11.3-0.6,14.6c0.1,0.6,0.2,1.5,0,2.5c-0.1,0.5-0.3,1.1-0.5,1.7
		c-0.4,1.1-0.6,2.7-0.7,3.6c-0.6,3.7-0.6,3.9-0.8,9.8l-2.7-0.1c0,0-0.3-4.3-1.2-6.6c-0.5-1.3-1.6-2.4-1.7-4.2c-0.1-1.3,0.8-4,3.1-4
		c-0.1-5.4-2.6-4.3-3.3-15.6L71.4,46.1z"/>
	<path class="st4" d="M54.9,22.4c0,0,1,0.3,2.1,0.4s2.2,0,3.3-0.1c2.1-0.2,5.2-0.4,7.2,0.7c0,0,1.1-0.4,2.3-0.3
		c0.5,0,1.1,0.5,1.7,0.7c2,0.5,3.9,3.8,3,6.7c-0.1,0.2-0.7,0-1.4,0.2c0.1,0.6,0.2,2.1-0.5,3.6s-1.7,3.5-1.6,7.3
		c-4.7-0.2-6.8-0.5-11.5-0.7c-0.4-1.6-0.7-3.3-0.7-4.2c0.6-0.3,1-0.6,1.5-1.1c-1.4,0.2-1.9,0.1-2.7-0.3c-0.8-0.5-2.2-1.9-2.9-2.8
		c-0.1-0.1-0.6,1.4-1.7,1.4c-0.4-0.6,1.3-2.2,1-2.9C52.8,28.8,54.9,22.4,54.9,22.4z"/>
	<path class="st3" d="M71.8,42.4c0,0,0.1,1.6,0.1,2s0.4,1.8,0.4,2.4c-0.5,0.8-2.6,2.8-6.5,3.5C62,51.1,56.9,45,56.9,45
		c0.2-0.6,0.6-2.3,0.9-3.2c0-0.1,0.1-0.3,0.2-0.4C58.2,40.9,71.8,42.4,71.8,42.4z"/>
	<path class="st4" d="M70.8,42.6c0,1.1,0.2,1.9,0.3,2.7c0.2,1.3,0.6,2.2,0.6,3c0,2.6-3.4,2.2-6.3,2.2c-3.8,0.8-7.1-5.3-7.1-5.3
		c0.3-1,0.4-2.2,0.9-3.2l0,0c0-0.5,0.1-1.2,0.2-1.5c5.4,0,9.3,0.3,11.6,0.5C70.9,41.5,70.9,42.4,70.8,42.6L70.8,42.6z"/>
	<path class="st3" d="M66.5,48.3c0,0-2.4-5.3-9.5-3.7c-1.7,4.8-4,10.3-2.5,16.2c-1.5,2-3.2,3.1-3.2,6.9c0,3.7,0.2,4.4,0.2,4.4
		l5.2,0.3c0,0,1.7-2.2,2.4-4.6c0.2-0.7,0.3-1.9,0.2-3.3c0.2-0.2,0.9-0.9,1-2.1c0,0,2.5-1.3,4-4.6C65.8,54.8,65.4,52.3,66.5,48.3z"/>
	<path class="st4" d="M66.5,48.3c-0.1-0.5-1.9-5.3-8.5-3.9c-3.9,10.4-2.5,14.7-1.9,16.6c-2.6,3.4-3.8,4.1-3.3,10.9h3.5
		c1.6-2.5,2-3.5,2.1-6.8c0-0.1-0.5,0.3-0.8,0.7c0.3-1.4,1-1.7,1.6-2.5c0.3-0.4,0.5-0.9,0.5-1.6c3.1-2.1,4.3-4.8,5-7.5
		C65.1,52.3,65.7,49.2,66.5,48.3z"/>
	<path class="st3" d="M55.4,41.1c0,0,1.2,0,2.3,0.4c1,0.4,1,0.6,1.4,1c0.4,0.5,1.4,1.1,1.2,1.8c-0.1,0.4-0.3,0.4-0.6,0.8
		c-0.1,0.2-1.1,1.2-1.3,1.3s-0.3,0.2-0.5,0.3c-0.1,0.1-0.5,0.4-0.7,0.4c-0.4,0.3-0.7,0.4-1.2,0.4c0,0-1.1,0-1.8-0.8
		c0,0-0.1-0.4,0.1-0.5c0,0-1-0.8-1.2-1.4c-0.3-0.5-0.3-1.3-0.1-1.7C53.1,42.7,54.8,41.6,55.4,41.1z"/>
	<path class="st3" d="M56.6,84.7l-0.1,1.1c0,0-0.4,0.5-3.4,0.4s-3.9-1-4.1-1.5l-0.2-1.2c0,0,0.6-0.8,0.7-0.8c1,0.1,4.4,1.4,6.7,1.8
		C56.3,84.5,56.4,84.6,56.6,84.7z"/>
	<path class="st3" d="M63.1,82.4c0,0.5,0,0.5,0,1c0.5,0.4,1.9,0.6,4.4,0.6c3.7-0.1,7.2,1.1,11.4,0.4v-0.8l-0.5-0.1l-14.9-1.2
		L63.1,82.4z"/>
	<path class="st3" d="M66.3,83.9c0.3,0,0.7,0,1.1,0c2.4-0.1,4.7,0.4,7.2,0.6c1.3-0.1,2.9-0.3,2.8-1.3l-12.7-1.1
		C63.9,83,64.5,83.7,66.3,83.9z"/>
	<path class="st3" d="M51.7,65.1c0.4,0.3,3.1,1.9,7.5,1.7c-0.1,0.8,0,2.5-2,5.4c-1,1.4-1.8,3.9-2,7.1c0,0.7,0.5,1.3-0.1,2.3
		c0.2,0.6,0.9,1.7,1.2,2.5s0.5,1.5-1.9,1.6c-2.4,0-6.3-0.2-5.8-2.1c0.3-1,1-2,1.1-2.4s0.1-1.6,0.9-2.4c0.7-2.2,0.5-4.4,0.3-6.4
		C50.9,70.2,50.8,66.8,51.7,65.1z"/>
	<path class="st3" d="M55.9,28.6c3.2-4.2,0.5-7.6-4.6-6.6c-2.1,0.4-4.1,1.8-4.3,4.4c-0.7,0.1-2.2,0.2-3,2.9
		c-0.6,2.1-0.9,2.5-1.9,3.6c-0.7,0.8,0.1,2.3,0.5,3.4c1.6,3.8,6.8,4.2,10.2,7.1c1.2-0.3,2.4-1.6,2.7-2.5c-2.9-3.5-2.3-4.8-3.4-6.6
		C53.4,34.1,56.3,32.4,55.9,28.6z"/>
	<path class="st4" d="M55.3,28.4c0.2-0.3,0.5-0.8,0.6-1.1c0-0.1,0.6,0.8,0.6,0.8c1.2-2,1.5-4.8,0.1-5.1c-0.3-0.1-0.9-0.2-1.4-0.4
		c-0.9-0.3-1.7-0.3-3.1-0.1c-2,0.4-3.9,1.8-3.9,3.9c0,0.1,1.4,0.5,1.8,2.2c-0.7-0.9-1.8-2-3.2-1.1c-1.5,0.9-0.7,3.1-2.7,5.3
		c-0.7,0.7-0.6,1.7,0.2,3.4c1.1,2.8,6.7,4.4,9.7,7c0.7-0.3,1.2-1,1.5-1.6c-2-2.1-2.8-4.1-3.4-5.5c-0.7-1.7-1.5-2.6-3.1-3.9
		c0.8,0.3,1.4,0.6,1.8,0.9c0.4,0.3,1,0.3,1.5,0.1C54.1,32.8,55.2,30.1,55.3,28.4z"/>
	<path class="st3" d="M74.7,29.1c-0.1,1.7-1.4,0.8-2.1,0.5c-1.3-0.6-2.7-1-4.3-1c-1.5,0-3.6,0.1-5.3,0.6c-2.4,0.7-3.1,0.6-4.2,0.1
		c-1.1-0.6-3-2-3-2s-0.1,0.5,0.4,1c0.6,0.7,1.9,1.6,3.6,2.2c0.8,0.3,1.5,0.1,2.3-0.1c4-1,8.2-1.2,11.7,1c0.2,0.1,0.8-0.2,1.1-0.6
		C75.4,30.3,74.7,29.1,74.7,29.1z"/>
	<path class="st6" d="M54.4,46.1c0.4,0.2,0.8,0.4,1.3,0.8c0,0-0.4,0-0.6-0.2C54.9,46.6,54.4,46.2,54.4,46.1
		C54.3,46.2,54.4,46.1,54.4,46.1z"/>
	<path class="st4" d="M67.3,10.6c-0.1-0.4-1.1-1.1-3.4-1.1c-2.5,0-3.2,0.7-3.2,1.1c0,0.1-0.2,1.6-0.2,2.1c0,0,0,0.7,0,1.8
		c0,0.7,0.2,1.1,0.3,2.1s0.4,1.6,0.9,2.4c0.2,0.1,0.4,0.3,0.6,0.3c0.9,0.2,2.5,0.2,3.3,0c0.5-0.1,1.1-1,1.3-1.7
		c0.2-0.9,0.4-1.6,0.4-2.2c0.1-0.6,0.1-1.9,0.2-2.2C67.6,12.3,67.3,10.8,67.3,10.6z"/>
	<path class="st3" d="M62.6,66c0,0,2.4,1.1,8.2,0.1c0,0-1.7,8.3-0.9,12.5c0,0,0.7,1.1,6.4,3.1c0,0,2.5,0.6,2.4,1.9
		c0,0,0.1,0.3-2.9,0.2c-3-0.1-5.9-0.6-7.9-0.6s-4.1,0.1-4.5-0.5s0.1-1.9,0.7-2.7c0.6-0.8,0.4-1.5,0.4-3C64.3,72.9,61.3,68.8,62.6,66
		z"/>
	<path class="st5" d="M62.1,66.7c-0.3,0.4,0,2.1,0.5,3.8c0.5,1.7,1.4,2.7,1.7,5.3c0.2,2.7,0.3,3-0.5,4.6s-1,3,1.7,3
		c2.7,0,4.1,0,6.7,0.3c2.7,0.4,3.6,0.5,5.1,0.3s1.8-0.7,1.1-1.2c-0.6-0.4-3.2-0.9-4.3-1.8c-1.1-0.8-4.1-2.2-4.2-2.5
		c-0.1-1.2-0.2-5.6,0-7s0.5-3.5,0.6-4c0.1-0.6,0.5-1.1-0.2-0.9c-0.8,0.2-3.6,0.6-5.8,0.4C62.5,67,62.2,66.6,62.1,66.7z"/>
	<path class="st7" d="M63.6,80.6c0.8,0.3,1.9,0.6,2.7,0.6c0,0-0.3,1.5,0.2,2.4s-3.6,0.3-3.6,0.3l-0.2-3.2L63.6,80.6z"/>
	<path class="st7" d="M75.5,84.4c0.7-0.2,1.2-1,0.6-1.8c-0.6-0.7-1.1-0.9-0.3-0.9c0.8,0,3.8,1.8,3.8,1.8l-1.5,1.4L75.5,84.4z"/>
	<path class="st7" d="M62,68.5c1,0.4,2.6,0.5,3.9,0.4c1.3,0,3.4-0.2,4.7-0.7c1.3-0.4,0.8,0.5,0.8,0.5l-0.7,0.7c0,0-1.7,0.7-4.5,0.6
		c-3.3-0.1-4.2-0.4-4.2-0.4L62,68.5z"/>
	<path class="st7" d="M62.1,70.7c1,0.4,2.6,0.5,3.9,0.4c1.3,0,3.1-0.1,4.4-0.5c0.5-0.2,0.2,0.6,0.2,0.6l-0.2,0.4
		c0,0-1.7,0.6-4.5,0.6c-3.3-0.1-3.8-0.3-3.8-0.3L62.1,70.7z"/>
	<path class="st3" d="M59.1,39.3c0,0.3,3.5,2.1,5.4,2.4c1.9,0.4,5.9,0,6.6-0.1L71,42.2c0,0-4.8,0.7-8.4-0.3c-3.7-1-3.3-1.2-3.3-1.2
		L59.1,39.3z"/>
	<g>
		<path class="st4" d="M51.6,77.5c0.5,0.3,2.5,0.7,3.7,0.5c0.2,0,0-3.1,0.5-4.5c0.7-1.9,1.9-3.5,2.4-6.9c-1.9-0.2-4-0.7-5.2-1
			C51.7,70,52.2,73.8,51.6,77.5z"/>
		<path class="st4" d="M54.6,80.3c0.3,0.1,0.5,0.5,0.6,0.2c0.2-0.4-0.3-1.1-0.4-1.7c0-0.1,0,0,0-0.1c-0.4-0.4-3.1-0.4-2.9-0.2
			c-0.3,0.6-0.8,0.5-1,1.6c-0.1,0.6,0.6,0.1,1.3,0.1C51,81,49.6,82,49.4,82.9c-0.3,1.2,0.2,1.6,1.5,2.3c1.1,0.3,2.5,0.3,3.6,0.2
			c1.2-0.2,1.4-0.8,1.1-1.6C55.1,82.7,54.8,81.2,54.6,80.3z"/>
	</g>
	<path class="st3" d="M55.1,22.2c1.5,0.8,3.5,0.6,4.3,0.6c0.2,0,2-0.3,2.1-0.3c0.2,0,0.2,0.2,0.2,0.2s-0.7,0.4-2.2,0.5
		c-1.4,0.1-3.1,0-4.1-0.4C54.3,22.2,55.1,22.2,55.1,22.2z"/>
	<path class="st3" d="M70.3,23.1c0.3,0.2,2,0.8,2.8,1.6c0.7,0.7,0.3,0.7,0.2,0.5s-1.6-1.2-2.1-1.4S70,23.2,70,23.1
		C70,23,70.3,23.1,70.3,23.1z"/>
	<path class="st4" d="M54.9,41.6c1.3-0.1,2.6,0.2,3.5,1.1c0.5,0.5,1.2,0.9,1.1,1.4c0,0.1-0.3,0.5-0.5,0.8c-0.1,0.2-0.5,0.6-0.7,0.7
		c-0.2,0.1-0.8,0.6-0.9,0.7c-0.1,0.1-0.3,0.3-0.5,0.4c-0.5,0.2-1,0.1-1.4-0.2c-0.4-0.2,0.1-0.3-0.4-0.6c-1.2-0.8-1.9-1.4-1.4-3.1
		C53.8,42.4,54.3,42.1,54.9,41.6z"/>
	<path class="st8" d="M60,30.5c-1-0.4-1.8,0.8-1.6,2c0.3,1.2,2.7,2.4,2.6,6.7c-0.1,3.5-0.9,4.9-0.9,4.9l-1.7-2.2
		c0,0-0.2-4.8-0.8-5.6c-0.6-0.7-2.4-2-3.1-2.7c-0.7-0.7,0.8-1.6,0.7-2.8c-0.1-1.2,0.8-3.6,0.8-3.6L60,30.5z"/>
	<path class="st8" d="M66.2,49.6c-0.1,3.4,0.7,8.3,1,10.7c0.3,2.4,0.7,2.5,0,3.6c-0.7,1-1.7,2.7-1.7,2.7l-3.1-0.3
		c0,0,2.5-3.1,2.6-3.7c0.1-0.6-1.3-5-1.3-5L66.2,49.6z"/>
	<path class="st8" d="M60.2,18.2c0.6,1.4,1.4,2,2.6,2.4c0.7,0.3,3.6,0.6,4.7-0.6c0.5-0.6,0.2-2.1,0.2-2.1L65.1,20l-3.5-0.6l-0.4-1
		L60.2,18.2z"/>
	<path class="st9" d="M60.5,21.4c1.2,0.8,4.1,1.5,4.9,1.6c0.8,0.2,2.1-0.9,2.7-1.1c0.7-0.3,1.8-0.5,3.2,0.7c0.2,0.1-0.3,0.7-0.3,0.7
		c-0.1,0-0.3-0.1-0.7-0.2c-0.4-0.2-0.7-0.3-1.2-0.3c-2.2,0.3-2.6,1-4.6,0.6c-1.9-0.4-2.5-0.8-4.4-0.7"/>
	<path class="st5" d="M60.1,21.5c1.5,0.6,4.3,1.3,5.2,1.5c0.8,0.2,2.1-0.6,2.7-1c1.1-0.7,2.6-0.1,3.2,0.6c0.4,0.5,0.6,0.8,0.6,0.9
		c0,0.2-0.5,0-0.5,0c-0.3-0.2-0.7-0.2-1-0.3c-0.4-0.2-0.7-0.4-1.2-0.4c-2.2,0.3-2.7,1-4.6,0.6c-1.9-0.4-2.4-0.9-4.5-0.7"/>
	<path class="st8" d="M73.9,34.5c0.1,0.7,0.5,2,1.2,2.6c0.3,0.3,0.4,0.4,0.1,0.4S73,37.4,73,37.4l-0.6-0.9L73.9,34.5z"/>
</g>
</svg>
