<?xml version="1.0" encoding="UTF-8" standalone="no"?>
<!-- Generator: Adobe Illustrator 21.0.2, SVG Export Plug-In . SVG Version: 6.00 Build 0)  -->

<svg
   version="1.1"
   id="new"
   x="0px"
   y="0px"
   viewBox="0 0 180 180"
   xml:space="preserve"
   sodipodi:docname="mapbox.svg"
   width="180"
   height="180"
   inkscape:version="1.1 (c4e8f9e, 2021-05-24)"
   xmlns:inkscape="http://www.inkscape.org/namespaces/inkscape"
   xmlns:sodipodi="http://sodipodi.sourceforge.net/DTD/sodipodi-0.dtd"
   xmlns="http://www.w3.org/2000/svg"
   xmlns:svg="http://www.w3.org/2000/svg"
   xmlns:rdf="http://www.w3.org/1999/02/22-rdf-syntax-ns#"
   xmlns:cc="http://creativecommons.org/ns#"
   xmlns:dc="http://purl.org/dc/elements/1.1/"><defs
   id="defs36">
	
	
</defs><sodipodi:namedview
   id="namedview34"
   pagecolor="#ffffff"
   bordercolor="#666666"
   borderopacity="1.0"
   inkscape:pageshadow="2"
   inkscape:pageopacity="0.0"
   inkscape:pagecheckerboard="0"
   showgrid="false"
   width="180px"
   inkscape:zoom="1.42875"
   inkscape:cx="141.03237"
   inkscape:cy="102.53718"
   inkscape:window-width="1312"
   inkscape:window-height="987"
   inkscape:window-x="0"
   inkscape:window-y="25"
   inkscape:window-maximized="0"
   inkscape:current-layer="new" />
<title
   id="title9">Mapbox_Logo_08</title>
<g
   id="g29"
   transform="matrix(0.85028741,0,0,0.85028741,10.866673,14.182794)">
		<path
   d="M 93.9,1.1 C 44.8,1.1 5,40.9 5,90 c 0,49.1 39.8,88.9 88.9,88.9 49.1,0 88.9,-39.8 88.9,-88.9 C 182.8,40.9 143,1.1 93.9,1.1 Z m 42.2,110.7 c -30.4,30.4 -84.7,20.7 -84.7,20.7 0,0 -9.8,-54.2 20.7,-84.7 16.9,-16.9 44.9,-16.2 62.6,1.4 17.7,17.6 18.3,45.7 1.4,62.6 z"
   id="path25" />
		<polygon
   points="112.8,71.1 104.1,53.2 95.4,71.1 77.5,79.8 95.4,88.5 104.1,106.4 112.8,88.5 130.7,79.8 "
   id="polygon27" />
	</g>
<metadata
   id="metadata128"><rdf:RDF><cc:Work
       rdf:about=""><dc:title>Mapbox_Logo_08</dc:title></cc:Work></rdf:RDF></metadata></svg>
