<?xml version="1.0" encoding="utf-8"?>
<!-- Generator: Adobe Illustrator 26.4.1, SVG Export Plug-In . SVG Version: 6.00 Build 0)  -->
<svg version="1.1" id="Layer_1" xmlns="http://www.w3.org/2000/svg" xmlns:xlink="http://www.w3.org/1999/xlink" x="0px" y="0px"
	 viewBox="0 0 260 260" style="enable-background:new 0 0 260 260;" xml:space="preserve">
<g id="Page-1">
	<g id="Black-Next.js" transform="translate(-247.000000, -138.000000)">
		<g id="next-black" transform="translate(247.000000, 138.000000)">
			<g id="EXT-_x2B_-Type-something">
				<path id="EXT" d="M75.4,100.6h39v3.1H79v23.2h33.3v3.1H79v25.5h35.8v3.1H75.4V100.6z M117.9,100.6h4.1l18.3,25.5l18.7-25.5
					l25.5-32.3l-41.9,60.5l21.6,29.8H160l-19.6-27.1l-19.7,27.1h-4.2l21.8-29.8L117.9,100.6z M165.9,103.7v-3.1h44.4v3.1h-20.5v54.8
					h-3.6v-54.8H165.9z"/>
				<polygon id="Type-something" points="26.7,100.6 31.2,100.6 92.7,192.3 67.3,158.5 30.4,105 30.3,158.5 26.7,158.5 				"/>
			</g>
			<path id="_x2E_JS" d="M209.9,154.5c0.7,0,1.3-0.6,1.3-1.3c0-0.7-0.5-1.3-1.3-1.3c-0.7,0-1.3,0.6-1.3,1.3
				C208.6,154,209.2,154.5,209.9,154.5z M213.4,151.1c0,2.1,1.6,3.5,3.8,3.5c2.4,0,3.9-1.4,3.9-4v-8.8h-1.9v8.8
				c0,1.4-0.7,2.1-1.9,2.1c-1.1,0-1.9-0.7-1.9-1.7H213.4z M223.6,151c0.1,2.2,2,3.7,4.8,3.7c3,0,4.8-1.5,4.8-3.9
				c0-1.9-1.1-2.9-3.6-3.5l-1.4-0.3c-1.6-0.4-2.3-0.9-2.3-1.8c0-1.1,1-1.9,2.6-1.9c1.5,0,2.5,0.7,2.6,1.9h1.9
				c-0.1-2.1-2-3.6-4.5-3.6c-2.7,0-4.6,1.5-4.6,3.7c0,1.8,1,2.9,3.3,3.5l1.6,0.4c1.7,0.4,2.4,1,2.4,1.9c0,1.1-1.1,1.9-2.7,1.9
				c-1.7,0-2.8-0.8-3-1.9H223.6z"/>
		</g>
	</g>
</g>
</svg>
