<?xml version="1.0" encoding="UTF-8" standalone="no"?>
<svg
   width="256"
   height="256"
   viewBox="0 0 256 256"
   version="1.1"
   preserveAspectRatio="xMidYMid"
   id="svg23"
   sodipodi:docname="tanstack-query.svg"
   inkscape:version="1.1 (c4e8f9e, 2021-05-24)"
   xmlns:inkscape="http://www.inkscape.org/namespaces/inkscape"
   xmlns:sodipodi="http://sodipodi.sourceforge.net/DTD/sodipodi-0.dtd"
   xmlns="http://www.w3.org/2000/svg"
   xmlns:svg="http://www.w3.org/2000/svg"
   xmlns:rdf="http://www.w3.org/1999/02/22-rdf-syntax-ns#"
   xmlns:cc="http://creativecommons.org/ns#"
   xmlns:dc="http://purl.org/dc/elements/1.1/">
  <defs
     id="defs27" />
  <sodipodi:namedview
     id="namedview25"
     pagecolor="#ffffff"
     bordercolor="#666666"
     borderopacity="1.0"
     inkscape:pageshadow="2"
     inkscape:pageopacity="0.0"
     inkscape:pagecheckerboard="0"
     showgrid="false"
     height="256px"
     inkscape:zoom="1.6908706"
     inkscape:cx="165.89087"
     inkscape:cy="148.73994"
     inkscape:window-width="1312"
     inkscape:window-height="987"
     inkscape:window-x="0"
     inkscape:window-y="25"
     inkscape:window-maximized="0"
     inkscape:current-layer="svg23" />
  <title
     id="title9">React Query</title>
  <g
     id="g21"
     transform="matrix(0.82677168,0,0,0.82677168,22.677165,32.125984)">
    <path
       d="m 157.98009,142.48702 -4.91045,8.52676 c -1.47928,2.56864 -4.21776,4.15169 -7.18192,4.15169 h -37.61717 c -2.96416,0 -5.70264,-1.58305 -7.18192,-4.15169 l -4.910903,-8.52676 z m 13.7471,-23.87016 -8.65841,15.03402 H 91.089036 l -8.657957,-15.03402 z m -8.34026,-23.34204 8.35408,14.50636 H 82.417266 L 90.771338,95.27482 Z M 145.88772,73.208633 c 2.96416,0 5.70264,1.583047 7.18192,4.15169 l 5.2286,9.078353 H 95.860029 l 5.228601,-9.078353 c 1.47928,-2.568643 4.21776,-4.15169 7.18192,-4.15169 z"
       fill="#00435b"
       id="path11" />
    <path
       d="m 53.522824,69.251967 c -4.16707,-20.20594 -5.061335,-35.703723 -2.367782,-46.957274 1.601972,-6.692968 4.530764,-12.152997 8.984217,-16.092314 4.701687,-4.1588918 10.646132,-6.199665 17.32534,-6.199665 11.018704,0 22.602111,5.0246744 34.981011,14.570231 5.04912,3.893454 10.28946,8.586401 15.73177,14.081473 0.43317,-0.557657 0.9228,-1.083661 1.46834,-1.569807 15.38634,-13.711358 28.34029,-22.2304 39.41992,-25.5150861 6.58795,-1.95307334 12.77322,-2.13914481 18.40577,-0.2436187 5.94552,2.0008514 10.68291,6.1369015 14.02526,11.9301878 5.5161,9.561012 6.97076,22.124251 4.91424,37.63663 -0.83826,6.322994 -2.27132,13.210572 -4.29609,20.673357 0.76389,0.09225 1.5297,0.26162 2.28776,0.512831 19.52187,6.469271 33.3454,13.426187 41.7145,21.376703 4.9794,4.730354 8.23101,9.996665 9.40644,15.826125 1.24067,6.153 0.0309,12.32462 -3.30754,18.11359 -5.5058,9.54719 -15.62935,17.07697 -30.05165,23.04109 -5.79104,2.3948 -12.34326,4.56368 -19.66394,6.51429 0.33404,0.75421 0.5932,1.55518 0.76649,2.39548 4.16707,20.20594 5.06134,35.70372 2.36778,46.95727 -1.60197,6.69297 -4.53076,12.153 -8.98421,16.09231 -4.70169,4.1589 -10.64614,6.19967 -17.32534,6.19967 -11.01871,0 -22.60211,-5.02468 -34.98101,-14.57023 -5.10287,-3.9349 -10.40104,-8.68639 -15.90562,-14.25721 -0.56638,0.88596 -1.26176,1.70945 -2.0842,2.44235 -15.38634,13.71136 -28.340294,22.2304 -39.419925,25.51509 -6.587946,1.95307 -12.773212,2.13914 -18.405764,0.24362 -5.945526,-2.00085 -10.682911,-6.1369 -14.025267,-11.93019 -5.516091,-9.56101 -6.97075,-22.12425 -4.914231,-37.63663 0.868558,-6.55155 2.3757,-13.70925 4.517974,-21.48489 -0.837369,-0.0848 -1.678165,-0.26193 -2.509649,-0.53747 C 32.075545,149.91061 18.252016,142.95369 9.882919,135.00318 4.9035199,130.27282 1.6519108,125.00651 0.47647695,119.17705 -0.76419548,113.02405 0.44555666,106.85243 3.78402,101.06346 9.2898205,91.516266 19.413365,83.986494 33.835673,78.022369 39.799261,75.556218 46.570066,73.329638 54.156045,71.334294 53.885762,70.672642 53.672337,69.976943 53.522824,69.251967 Z"
       fill="#002b3b"
       id="path13" />
    <path
       d="m 189.64708,161.33255 c 1.94104,-0.34399 3.80107,0.90041 4.23444,2.80961 l 0.0238,0.11307 0.20683,1.07439 c 6.70988,35.27666 1.98331,52.91498 -14.1797,52.91498 -15.81388,0 -35.94473,-15.0508 -60.39255,-45.15241 -0.54017,-0.66509 -0.83158,-1.49768 -0.82435,-2.35446 0.0177,-1.99586 1.61942,-3.60704 3.6011,-3.65031 l 0.11475,-7.4e-4 1.28746,0.009 c 10.28775,0.0558 20.28899,-0.30293 30.00371,-1.07611 11.4677,-0.91269 23.44253,-2.47508 35.92448,-4.68715 z M 78.645863,134.6669 l 0.06198,0.10462 0.645978,1.1274 c 5.176839,9.00012 10.570425,17.54232 16.180758,25.62661 6.607141,9.52065 14.037191,19.15881 22.290141,28.91448 1.27674,1.50921 1.13098,3.74936 -0.30939,5.08163 l -0.0937,0.0838 -0.83038,0.71473 c -27.305976,23.39681 -45.053799,28.06759 -53.243474,14.01234 -8.016437,-13.75793 -5.11003,-38.77367 8.719219,-75.04724 0.303889,-0.79709 0.875018,-1.46399 1.615886,-1.88686 1.731444,-0.98825 3.926731,-0.41759 4.96297,1.26851 z M 203.5034,82.613134 l 0.1119,0.03641 1.02775,0.354937 c 33.70476,11.724539 46.51007,24.609349 38.41595,38.654419 -7.91631,13.73652 -30.93002,23.73787 -69.04112,30.00406 -0.84988,0.13974 -1.72186,-0.0228 -2.46435,-0.45927 -1.75372,-1.03097 -2.33962,-3.28841 -1.30864,-5.04213 5.45857,-9.28517 10.37481,-18.52402 14.7487,-27.71655 4.96052,-10.4254 9.61572,-21.615606 13.96559,-33.57059 0.6595,-1.812553 2.59683,-2.797004 4.432,-2.293953 z M 84.446472,76.709975 c 1.753718,1.030976 2.339616,3.288417 1.308639,5.042134 -5.458572,9.285173 -10.374807,18.524021 -14.748705,27.716541 -4.960517,10.42541 -9.615712,21.61561 -13.965584,33.57059 -0.672964,1.84955 -2.676437,2.83685 -4.544225,2.26129 l -0.111893,-0.0364 -1.027753,-0.35494 C 17.652193,133.18464 4.8468769,120.29984 12.941003,106.25477 20.857311,92.518254 43.871017,82.5169 81.982119,76.250709 c 0.849881,-0.139737 1.72186,0.02277 2.464353,0.459266 z M 192.65221,18.962472 c 8.01644,13.757929 5.11003,38.773676 -8.71922,75.047241 -0.30389,0.797089 -0.87502,1.463991 -1.61588,1.886856 -1.73145,0.988256 -3.92673,0.417597 -4.96297,-1.268503 l -0.062,-0.104621 -0.64597,-1.127399 c -5.17684,-9.000123 -10.57043,-17.542326 -16.18076,-25.626612 -6.60714,-9.52065 -14.03719,-19.158811 -22.29014,-28.914482 -1.27673,-1.50921 -1.13098,-3.74936 0.30939,-5.081624 l 0.0937,-0.08379 0.83038,-0.714724 C 166.71471,9.5780092 184.46254,4.9072282 192.65221,18.962472 Z M 77.448812,10.589928 c 15.81388,0 35.944728,15.050805 60.392548,45.152414 0.54017,0.665089 0.83158,1.497682 0.82436,2.354461 -0.0178,1.995855 -1.61943,3.607042 -3.60111,3.650304 l -0.11474,7.48e-4 -1.28746,-0.0091 c -10.28776,-0.05577 -20.28899,0.302928 -30.00372,1.076106 -11.467695,0.912695 -23.442522,2.475078 -35.924477,4.687149 -1.941036,0.343993 -3.801072,-0.900413 -4.234437,-2.809612 L 63.475939,64.579302 63.26911,63.504914 C 56.559235,28.228256 61.285802,10.589928 77.448812,10.589928 Z"
       fill="#ff4154"
       id="path15" />
    <g
       transform="translate(80.57554,73.669065)"
       fill="#ffd94c"
       id="g19">
      <path
         d="m 30.718986,0 h 31.575945 c 4.61782,0 8.882964,2.4698457 11.181517,6.4749563 L 89.331093,34.100856 c 2.280758,3.974103 2.280758,8.860156 0,12.83426 L 73.476448,74.561015 c -2.298553,4.005111 -6.563697,6.474956 -11.181517,6.474956 H 30.718986 c -4.61782,0 -8.882964,-2.469845 -11.181517,-6.474956 L 3.6828237,46.935116 c -2.2807585,-3.974104 -2.2807585,-8.860157 0,-12.83426 L 19.537469,6.4749563 C 21.836022,2.4698457 26.101166,0 30.718986,0 Z m 26.763469,8.3381064 c 4.620259,0 8.887267,2.4724336 11.184913,6.4808756 l 11.055795,19.287793 c 2.276232,3.971083 2.276232,8.851338 0,12.822421 L 68.667368,66.216989 c -2.297646,4.008443 -6.564654,6.480876 -11.184913,6.480876 H 35.531461 c -4.620258,0 -8.887266,-2.472433 -11.184912,-6.480876 L 13.290753,46.929196 c -2.276231,-3.971083 -2.276231,-8.851338 0,-12.822421 L 24.346549,14.818982 C 26.644195,10.81054 30.911203,8.3381064 35.531461,8.3381064 Z M 52.295383,17.45791 H 40.718534 c -4.615516,0 -8.8789,2.467403 -11.178308,6.469366 v 0 l -5.842222,10.167989 c -2.285038,3.976955 -2.285038,8.868487 0,12.845441 v 0 l 5.842222,10.167989 c 2.299408,4.001963 6.562792,6.469366 11.178308,6.469366 v 0 h 11.576849 c 4.615516,0 8.878899,-2.467403 11.178307,-6.469366 v 0 l 5.842222,-10.167989 c 2.285039,-3.976954 2.285039,-8.868486 0,-12.845441 v 0 L 63.47369,23.927276 C 61.174282,19.925313 56.910899,17.45791 52.295383,17.45791 Z m -4.994629,8.728955 c 4.612059,0 8.872798,2.463739 11.173485,6.46098 l 0.828262,1.439034 c 2.29147,3.981227 2.29147,8.880987 0,12.862213 l -0.828262,1.439034 c -2.300687,3.997241 -6.561426,6.46098 -11.173485,6.46098 h -1.587591 c -4.612059,0 -8.872799,-2.463739 -11.173485,-6.46098 l -0.828262,-1.439034 c -2.29147,-3.981226 -2.29147,-8.880986 0,-12.862213 l 0.828262,-1.439034 c 2.300686,-3.997241 6.561426,-6.46098 11.173485,-6.46098 z m -0.791713,8.598672 c -2.052716,0 -3.945773,1.092499 -4.970693,2.866224 -1.024747,1.773427 -1.024747,3.959022 0,5.732449 1.02492,1.773725 2.917977,2.866224 4.966528,2.866224 v 0 c 2.052716,0 3.945773,-1.092499 4.970693,-2.866224 1.024747,-1.773427 1.024747,-3.959022 0,-5.732449 -1.02492,-1.773725 -2.917977,-2.866224 -4.966528,-2.866224 z M 0,40.517986 h 10.320827"
         id="path17" />
    </g>
  </g>
  <metadata
     id="metadata109">
    <rdf:RDF>
      <cc:Work
         rdf:about="">
        <dc:title>React Query</dc:title>
      </cc:Work>
    </rdf:RDF>
  </metadata>
</svg>
