<?xml version="1.0" encoding="utf-8"?>
<!-- Generator: Adobe Illustrator 26.4.1, SVG Export Plug-In . SVG Version: 6.00 Build 0)  -->
<svg version="1.1" id="esrszalajy61" shape-rendering="geometricPrecision" text-rendering="geometricPrecision"
	 xmlns="http://www.w3.org/2000/svg" xmlns:xlink="http://www.w3.org/1999/xlink" x="0px" y="0px" viewBox="0 0 220 220"
	 style="enable-background:new 0 0 220 220;" xml:space="preserve">
<style type="text/css">
	.st0{fill:#F5F5F5;}
	.st1{fill:none;stroke:#000000;stroke-width:6;stroke-linecap:round;}
	.st2{fill:#80CBC4;stroke:#000000;stroke-width:5;stroke-linejoin:round;}
	.st3{fill:none;stroke:#000000;stroke-width:5;}
	.st4{fill:#EE999C;stroke:#000000;stroke-width:4;}
</style>
<g id="esrszalajy62" transform="matrix(1 0 0 1 14.23241708500002 18.33000183000001)">
	<circle id="esrszalajy63" class="st0" cx="105.3" cy="91.7" r="81.7"/>
	<line id="esrszalajy64" class="st1" x1="149.8" y1="43.5" x2="149.8" y2="170.4"/>
</g>
<g id="esrszalajy65_tr" transform="translate(154.652417,63.770002) rotate(0)">
	<g id="esrszalajy65" transform="translate(-140.420000,-45.440000)">
		<path id="esrszalajy66" class="st2" d="M12.6,99.4l88.9-52.1c0,0,13.3,9.7,19.6,25.1c3.8,9.5,5.6,19.7,5.2,30L29.1,137
			c0,0-10.8-7.9-14-15.4C11.9,114.1,12.6,99.4,12.6,99.4z"/>
		<line id="esrszalajy67" class="st3" x1="124.4" y1="87.2" x2="150.4" y2="54.8"/>
		<line id="esrszalajy68" class="st3" x1="112.6" y1="57.5" x2="150.6" y2="55.4"/>
		<path id="esrszalajy69" class="st4" d="M56.2,126.8L37.4,84.4l14-8.3l19.1,45.3L56.2,126.8z"/>
		<path id="esrszalajy610" class="st4" d="M71.3,121.8L51.4,77l14.8-8.8L86.4,116L71.3,121.8z"/>
	</g>
</g>
</svg>
