<?xml version="1.0" encoding="utf-8"?>
<!-- Generator: Adobe Illustrator 26.4.1, SVG Export Plug-In . SVG Version: 6.00 Build 0)  -->
<svg version="1.1"
	 id="Layer_1" xmlns:dc="http://purl.org/dc/elements/1.1/" xmlns:rdf="http://www.w3.org/1999/02/22-rdf-syntax-ns#" xmlns:cc="http://creativecommons.org/ns#"
	 xmlns="http://www.w3.org/2000/svg" xmlns:xlink="http://www.w3.org/1999/xlink" x="0px" y="0px" viewBox="0 0 512 512"
	 style="enable-background:new 0 0 512 512;" xml:space="preserve">
<style type="text/css">
	.st0{fill:#3178C6;}
	.st1{fill-rule:evenodd;clip-rule:evenodd;fill:#FFFFFF;}
</style>
<rect class="st0" width="512" height="512"/>
<path class="st1" d="M317,407v50c8.1,4.2,18,7.3,29,9.4s23,3.1,35,3.1s23-1.1,34-3.4s20-6.1,28-11c8.1-5.3,15-12,19-21
	s7.1-19,7.1-32c0-9.1-1.4-17-4.1-24s-6.6-13-12-18c-5.1-5.3-11-10-18-14s-15-8.2-24-12c-6.6-2.7-12-5.3-18-7.9
	c-5.2-2.6-9.7-5.2-13-7.8c-3.7-2.7-6.5-5.5-8.5-8.4c-2-3-3-6.3-3-10c0-3.4,0.9-6.5,2.7-9.3s4.3-5.1,7.5-7.1s7.2-3.5,12-4.6
	c4.7-1.1,9.9-1.6,16-1.6c4.2,0,8.6,0.3,13,0.9c4.6,0.6,9.3,1.6,14,2.9s9.3,2.9,14,4.9c4.4,2,8.5,4.3,12,6.9v-47
	c-7.6-2.9-16-5.1-25-6.5s-19-2.1-31-2.1s-23,1.3-34,3.8s-20,6.5-28,12c-8.1,5.4-14,12-19,21c-4.7,8.4-7,18-7,30c0,15,4.3,28,13,38
	c8.6,11,22,19,39,27c6.9,2.8,13,5.6,19,8.3s11,5.5,15,8.4c4.3,2.9,7.7,6.1,10,9.5c2.5,3.4,3.8,7.4,3.8,12c0,3.2-0.8,6.2-2.3,9
	s-3.9,5.2-7.1,7.2s-7.1,3.6-12,4.8c-4.7,1.1-10,1.7-17,1.7c-11,0-22-1.9-32-5.7c-11-3.8-21-9.5-30-17L317,407z M233,284h64v-41H118
	v41h64v183h51V284z"/>
</svg>
